<?xml version="1.0" encoding="utf-8"?>
<!-- Generator: Adobe Illustrator 19.2.1, SVG Export Plug-In . SVG Version: 6.00 Build 0)  -->
<svg version="1.1" id="Layer_1" xmlns="http://www.w3.org/2000/svg" xmlns:xlink="http://www.w3.org/1999/xlink" x="0px" y="0px"
	 viewBox="0 0 94.8 94.8" style="enable-background:new 0 0 94.8 94.8;" xml:space="preserve">
<style type="text/css">
	.st0{fill:url(#SVGID_1_);}
	.st1{fill:url(#SVGID_2_);}
	.st2{fill:url(#SVGID_3_);}
	.st3{fill:url(#SVGID_4_);}
	.st4{fill:url(#SVGID_5_);}
	.st5{fill:url(#SVGID_6_);}
	.st6{fill:url(#SVGID_7_);}
	.st7{fill:url(#SVGID_8_);}
</style>
<g>
	<radialGradient id="SVGID_1_" cx="47.4004" cy="47.4004" r="47.4004" gradientUnits="userSpaceOnUse">
		<stop  offset="0.4798" style="stop-color:#FFFFFF;stop-opacity:0.2"/>
		<stop  offset="0.9242" style="stop-color:#FFFFFF;stop-opacity:0.8835"/>
		<stop  offset="1" style="stop-color:#FFFFFF"/>
	</radialGradient>
	<circle class="st0" cx="47.4" cy="47.4" r="47.4"/>
	<radialGradient id="SVGID_2_" cx="56.3517" cy="34.4062" r="29.7556" gradientUnits="userSpaceOnUse">
		<stop  offset="0" style="stop-color:#FFFFFF"/>
		<stop  offset="1" style="stop-color:#FFFFFF;stop-opacity:0"/>
	</radialGradient>
	<circle class="st1" cx="56.4" cy="34.4" r="29.8"/>
	<radialGradient id="SVGID_3_" cx="62.1329" cy="14.3505" r="48.7764" gradientUnits="userSpaceOnUse">
		<stop  offset="0" style="stop-color:#FFFFFF"/>
		<stop  offset="1" style="stop-color:#FFFFFF;stop-opacity:0"/>
	</radialGradient>
	<path class="st2" d="M51.4,11.3l6.3-6.9c9.2,4.9,15.9,10.4,20.8,15.8l-5,6.5c-1.8-1.8-3.8-3.6-5.9-5.3
		C60.3,15.6,53.6,12.3,51.4,11.3z M72.5,28c-2-2-4-3.8-5.8-5.3c-7.8-6.3-15.1-9.6-16.3-10.1L44,19.4c0,0,12.6,4.6,23.8,14.5L72.5,28
		z M73.6,29.1L69,35c6.4,5.9,12.1,13.6,14.5,23.2c1.5-1.5,2.8-2.8,3.8-3.8C85.1,43.8,79.5,35.3,73.6,29.1z M79.6,21.5l-5,6.4
		c2.2,2.3,4.1,4.7,5.9,7.1c4,5.6,6.7,11.7,8.2,18c2.9-3.1,2.8-3.3,2.8-3.3S92,36,79.6,21.5z"/>
	<radialGradient id="SVGID_4_" cx="8.8807" cy="48.4212" r="48.3759" gradientUnits="userSpaceOnUse">
		<stop  offset="0" style="stop-color:#FFFFFF"/>
		<stop  offset="1" style="stop-color:#FFFFFF;stop-opacity:0"/>
	</radialGradient>
	<path class="st3" d="M14,68.2c0.9,1.7,1.9,3.3,2.9,4.8l-5.2,2.7C8.6,71.5,5.6,66.1,3.5,59l5.7-3.5C9.5,57.2,10.9,62.3,14,68.2z
		 M22.8,70c-5.4-9.2-7-18.6-7-18.6l-5.7,3.5c0.2,1,1.6,6.5,4.9,12.8c0.8,1.5,1.8,3.1,2.9,4.8L22.8,70z M34.4,86.4
		c0.9-0.6,1.9-1.3,3.2-2.1c-6.4-3-11-8-14.3-13.3l-4.8,2.4C22.2,78.4,27.3,83.5,34.4,86.4z M30.6,88.7c0,0,0.1,0.1,2.7-1.5
		c-4.2-1.9-8.1-4.6-11.5-8.1c-1.5-1.5-2.9-3.2-4.2-5.1l-5.1,2.6C20.9,87.2,30.6,88.7,30.6,88.7z"/>
	<radialGradient id="SVGID_5_" cx="35.1029" cy="66.0062" r="3.6863" gradientUnits="userSpaceOnUse">
		<stop  offset="0" style="stop-color:#FFFFFF"/>
		<stop  offset="1" style="stop-color:#FFFFFF;stop-opacity:0"/>
	</radialGradient>
	<circle class="st4" cx="35.1" cy="66" r="3.7"/>
	
		<radialGradient id="SVGID_6_" cx="71.007" cy="46.0431" r="3.6862" gradientTransform="matrix(0.6035 0.4454 -0.5302 0.7184 42.996 -23.5237)" gradientUnits="userSpaceOnUse">
		<stop  offset="0" style="stop-color:#FFFFFF"/>
		<stop  offset="1" style="stop-color:#FFFFFF;stop-opacity:0"/>
	</radialGradient>
	<path class="st5" d="M63.7,42.8c-1.1,1.5-3,1.9-4.2,1c-1.2-0.9-1.3-2.8-0.3-4.3c1.1-1.5,3-1.9,4.2-1C64.6,39.4,64.7,41.4,63.7,42.8
		z"/>
	
		<radialGradient id="SVGID_7_" cx="92.4905" cy="81.1663" r="8.3091" gradientTransform="matrix(0.6504 -0.5005 0.6972 0.9061 -66.7447 24.6931)" gradientUnits="userSpaceOnUse">
		<stop  offset="0" style="stop-color:#FFFFFF"/>
		<stop  offset="1" style="stop-color:#FFFFFF;stop-opacity:0"/>
	</radialGradient>
	<path class="st6" d="M55.4,47.8c3.2,4.2,3.4,9.4,0.4,11.7c-3,2.3-8,0.8-11.2-3.4c-3.2-4.2-3.4-9.4-0.4-11.7
		C47.2,42.1,52.2,43.6,55.4,47.8z"/>
	<radialGradient id="SVGID_8_" cx="76.696" cy="24.9283" r="10.2818" gradientUnits="userSpaceOnUse">
		<stop  offset="0" style="stop-color:#FFFFFF"/>
		<stop  offset="1" style="stop-color:#FFFFFF;stop-opacity:0"/>
	</radialGradient>
	<path class="st7" d="M78.9,26.2c2,0.7,3.4,1,3.4,1s-1.3-0.8-3.1-1.7c4.5-0.1,7.9-0.6,7.9-0.6s-3.4-0.5-7.9-0.6
		c1.9-0.9,3.1-1.7,3.1-1.7s-1.4,0.4-3.4,1c3.1-3.3,5.1-6,5.1-6s-2.7,2-6,5.1c0.7-2,1-3.4,1-3.4s-0.8,1.3-1.7,3.1
		c-0.1-4.5-0.6-7.9-0.6-7.9s-0.5,3.4-0.6,7.9c-0.9-1.9-1.7-3.1-1.7-3.1s0.4,1.4,1,3.4c-3.3-3.1-6-5.1-6-5.1s2,2.7,5.1,6
		c-2-0.7-3.4-1-3.4-1s1.3,0.8,3.1,1.7c-4.5,0.1-7.9,0.6-7.9,0.6s3.4,0.5,7.9,0.6c-1.9,0.9-3.1,1.7-3.1,1.7s1.4-0.4,3.4-1
		c-3.1,3.3-5.1,6-5.1,6s2.7-2,6-5.1c-0.7,2-1,3.4-1,3.4s0.8-1.3,1.7-3.1c0.1,4.5,0.6,7.9,0.6,7.9s0.5-3.4,0.6-7.9
		c0.9,1.9,1.7,3.1,1.7,3.1s-0.4-1.4-1-3.4c3.3,3.1,6,5.1,6,5.1S81.9,29.5,78.9,26.2z"/>
</g>
</svg>
