<?xml version="1.0" encoding="utf-8"?>
<!-- Generator: Adobe Illustrator 19.2.1, SVG Export Plug-In . SVG Version: 6.00 Build 0)  -->
<svg version="1.1" id="Layer_1" xmlns="http://www.w3.org/2000/svg" xmlns:xlink="http://www.w3.org/1999/xlink" x="0px" y="0px"
	 viewBox="0 0 600 200" style="enable-background:new 0 0 600 200;" xml:space="preserve">
<style type="text/css">
	.st0{fill:#FFFFFF;}
	.st1{fill:#3498DB;}
	.st2{fill:#313859;}
	.st3{fill-rule:evenodd;clip-rule:evenodd;fill:#313859;}
	.st4{fill:url(#SVGID_1_);}
	.st5{fill:url(#SVGID_2_);}
	.st6{fill:url(#SVGID_3_);}
	.st7{fill:#C0392B;}
	.st8{fill:#C6C1BD;}
	.st9{fill:#1840A7;}
	.st10{fill:none;stroke:#000000;stroke-miterlimit:10;}
	.st11{fill:none;stroke:#000000;stroke-miterlimit:10;stroke-dasharray:4.9233,4.9233;}
	.st12{fill:none;stroke:#000000;stroke-width:0.8165;stroke-miterlimit:10;}
	.st13{fill:none;stroke:#000000;stroke-width:0.8165;stroke-miterlimit:10;stroke-dasharray:4.0982,4.0982;}
</style>
<g>
	<rect class="st0" width="150" height="100"/>
	<g>
		<g>
			<g>
				<g>
					<path class="st1" d="M108.9,48c-11.2,0-17-4.4-21.6-7.9c-4.3-3.3-6.8-5-12.3-5c-5.5,0-8,1.7-12.3,5C58.1,43.6,52.3,48,41.1,48
						c-11.2,0-17-4.4-21.6-7.9c-4.3-3.3-6.8-5-12.3-5v-9.4c11.2,0,17,4.4,21.6,7.9c4.3,3.3,6.8,5,12.3,5c5.5,0,8-1.7,12.3-5
						C58,30,63.8,25.7,75,25.7c11.2,0,17,4.4,21.6,7.9c4.3,3.3,6.8,5,12.3,5c5.5,0,8-1.7,12.3-5c4.6-3.5,10.4-7.9,21.6-7.9V35
						c-5.5,0-8,1.7-12.3,5C125.9,43.6,120.1,48,108.9,48z"/>
				</g>
			</g>
			<g>
				<g>
					<path class="st1" d="M108.9,71.5c-11.2,0-17-4.4-21.6-7.9c-4.3-3.3-6.8-5-12.3-5c-5.5,0-8,1.7-12.3,5
						c-4.6,3.5-10.4,7.9-21.6,7.9c-11.2,0-17-4.4-21.6-7.9c-4.3-3.3-6.8-5-12.3-5v-9.4c11.2,0,17,4.4,21.6,7.9c4.3,3.3,6.8,5,12.3,5
						c5.5,0,8-1.7,12.3-5c4.6-3.5,10.4-7.9,21.6-7.9c11.2,0,17,4.4,21.6,7.9c4.3,3.3,6.8,5,12.3,5c5.5,0,8-1.7,12.3-5
						c4.6-3.5,10.4-7.9,21.6-7.9v9.4c-5.5,0-8,1.7-12.3,5C125.9,67.1,120.1,71.5,108.9,71.5z"/>
				</g>
			</g>
			<g>
				<g>
					<path class="st1" d="M108.9,95c-11.2,0-17-4.4-21.6-7.9c-4.3-3.3-6.8-5-12.3-5c-5.5,0-8,1.7-12.3,5C58.1,90.6,52.3,95,41.1,95
						c-11.2,0-17-4.4-21.6-7.9c-4.3-3.3-6.8-5-12.3-5v-9.4c11.2,0,17,4.4,21.6,7.9c4.3,3.3,6.8,5,12.3,5c5.5,0,8-1.7,12.3-5
						c4.6-3.5,10.4-7.9,21.6-7.9c11.2,0,17,4.4,21.6,7.9c4.3,3.3,6.8,5,12.3,5c5.5,0,8-1.7,12.3-5c4.6-3.5,10.4-7.9,21.6-7.9V82
						c-5.5,0-8,1.7-12.3,5C125.9,90.6,120.1,95,108.9,95z"/>
				</g>
			</g>
		</g>
		<g>
			<g>
				<path class="st0" d="M37,84.6c-5.2,0-9.4-4.2-9.4-9.4V29.6c0-5.2,4.2-9.4,9.4-9.4H113c5.2,0,9.4,4.2,9.4,9.4v45.6
					c0,5.2-4.2,9.4-9.4,9.4H37z"/>
				<path class="st0" d="M113,22.7c3.8,0,6.9,3.1,6.9,6.9v45.6c0,3.8-3.1,6.9-6.9,6.9H37c-3.8,0-6.9-3.1-6.9-6.9V29.6
					c0-3.8,3.1-6.9,6.9-6.9H113 M113,17.5H37c-6.6,0-12,5.4-12,12v45.6c0,6.6,5.4,12,12,12H113c6.6,0,12-5.4,12-12V29.6
					C125.1,22.9,119.7,17.5,113,17.5L113,17.5z"/>
			</g>
		</g>
		<g>
			<path class="st2" d="M67.1,10.4h16.2v7h5.4V8.6C88.6,6.6,87,5,85,5H65.3c-2,0-3.6,1.6-3.6,3.6v8.8h5.4V10.4z"/>
			<path class="st2" d="M112.7,22.7H37.3c-4,0-7.2,3.2-7.2,7.2v14.6h89.8V29.9C119.9,25.9,116.7,22.7,112.7,22.7z"/>
			<path class="st2" d="M30.1,74.8c0,4,3.2,7.2,7.2,7.2h46.6l-5.8-5.8c-1.2,0.4-2.4,0.6-3.7,0.6c-6.2,0-11.3-5.1-11.3-11.3
				c0-1.3,0.2-2.6,0.6-3.7l6.1,6.1c0.2,0.2,0.5,0.3,0.7,0.2l4.6-1.3c0.2-0.1,0.5-0.3,0.5-0.5l1.3-4.6c0.1-0.2,0-0.6-0.2-0.7
				l-6.1-6.1c1.2-0.4,2.4-0.6,3.8-0.6c6.2,0,11.3,5.1,11.3,11.3c0,1.3-0.2,2.6-0.6,3.7L97.8,82h14.9c4,0,7.2-3.2,7.2-7.2V49.9H30.1
				V74.8z"/>
		</g>
	</g>
</g>
<g>
	<rect x="150" class="st0" width="150" height="100"/>
	<g>
		<g>
			<g>
				<path class="st1" d="M260,45.4c-11.6,0-17.5-4.5-22.3-8.2c-4.5-3.4-7-5.2-12.7-5.2c-5.6,0-8.2,1.8-12.7,5.2
					c-4.8,3.6-10.7,8.2-22.3,8.2c-11.6,0-17.5-4.5-22.3-8.2c-4.5-3.4-7-5.2-12.7-5.2v-9.7c11.6,0,17.5,4.5,22.3,8.2
					c4.5,3.4,7,5.2,12.7,5.2c5.6,0,8.2-1.8,12.7-5.2c4.8-3.6,10.7-8.2,22.3-8.2c11.6,0,17.5,4.5,22.3,8.2c4.5,3.4,7,5.2,12.7,5.2
					c5.6,0,8.2-1.8,12.7-5.2c4.8-3.6,10.7-8.2,22.3-8.2V32c-5.6,0-8.2,1.8-12.7,5.2C277.5,40.9,271.6,45.4,260,45.4z"/>
			</g>
		</g>
		<g>
			<g>
				<path class="st1" d="M260,69.7c-11.6,0-17.5-4.5-22.3-8.2c-4.5-3.4-7-5.2-12.7-5.2c-5.6,0-8.2,1.8-12.7,5.2
					c-4.8,3.6-10.7,8.2-22.3,8.2c-11.6,0-17.5-4.5-22.3-8.2c-4.5-3.4-7-5.2-12.7-5.2v-9.7c11.6,0,17.5,4.5,22.3,8.2
					c4.5,3.4,7,5.2,12.7,5.2c5.6,0,8.2-1.8,12.7-5.2c4.8-3.6,10.7-8.2,22.3-8.2c11.6,0,17.5,4.5,22.3,8.2c4.5,3.4,7,5.2,12.7,5.2
					c5.6,0,8.2-1.8,12.7-5.2c4.8-3.6,10.7-8.2,22.3-8.2v9.7c-5.6,0-8.2,1.8-12.7,5.2C277.5,65.1,271.6,69.7,260,69.7z"/>
			</g>
		</g>
		<g>
			<g>
				<path class="st0" d="M237.8,81.6c-0.5,0-1-0.2-1.3-0.6s-0.5-0.8-0.5-1.3l0.1-5.8c0-1,0.9-1.9,1.9-1.9c0,0,2.3,0,2.3,0L241,6
					c0-0.5,0.2-1,0.6-1.3c0.4-0.3,0.8-0.5,1.3-0.5c0,0,43.8,0.5,43.8,0.5c1,0,1.9,0.9,1.9,1.9l-0.8,66l2.3,0c1,0,1.9,0.9,1.9,1.9
					l-0.1,5.8c0,0.5-0.2,1-0.6,1.3c-0.4,0.3-0.8,0.5-1.3,0.5C289.9,82.2,237.8,81.6,237.8,81.6z"/>
				<path class="st0" d="M242.9,6l43.7,0.5l-0.8,67.9l4.2,0.1l-0.1,5.8l-52.1-0.6l0.1-5.8l4.2,0.1L242.9,6 M242.9,2.3
					c-2.1,0-3.7,1.7-3.8,3.7l-0.8,64.1l-0.4,0c0,0,0,0,0,0c-2.1,0-3.7,1.7-3.8,3.7l-0.1,5.8c0,1,0.4,2,1.1,2.7s1.6,1.1,2.6,1.1
					l52.1,0.6c0,0,0,0,0,0c2.1,0,3.7-1.7,3.8-3.7l0.1-5.8c0-2.1-1.6-3.8-3.7-3.8l-0.4,0l0.8-64.1c0-1-0.4-2-1.1-2.7
					c-0.7-0.7-1.6-1.1-2.6-1.1L242.9,2.3C242.9,2.3,242.9,2.3,242.9,2.3L242.9,2.3z"/>
			</g>
			<path class="st2" d="M285.8,74.4l0.8-67.9L242.9,6l-0.8,67.9l-4.2-0.1l-0.1,5.8l52.1,0.6l0.1-5.8L285.8,74.4z M262.2,13.7l5,0.1
				l-0.1,7.2l-5-0.1L262.2,13.7z M262,26l5,0.1l-0.1,7.1l-5-0.1L262,26z M261.9,38.2l5,0.1l-0.1,7.1l-5-0.1L261.9,38.2z M261.7,50.5
				l5,0.1l-0.1,7.1l-5-0.1L261.7,50.5z M256.1,69.8l-5-0.1l0.1-7.1l5,0.1L256.1,69.8z M256.3,57.5l-5-0.1l0.1-7.1l5,0.1L256.3,57.5z
				 M256.4,45.3l-5-0.1l0.1-7.1l5,0.1L256.4,45.3z M256.6,33.1l-5-0.1l0.1-7.1l5,0.1L256.6,33.1z M256.7,20.8l-5-0.1l0.1-7.2l5,0.1
				L256.7,20.8z M267.9,77l-7.9-0.1l0.2-14.7l7.9,0.1L267.9,77z M276.9,70l-5-0.1l0.1-7.1l5,0.1L276.9,70z M277.1,57.8l-5-0.1
				l0.1-7.1l5,0.1L277.1,57.8z M277.2,45.6l-5-0.1l0.1-7.1l5,0.1L277.2,45.6z M277.4,33.3l-5-0.1l0.1-7.1l5,0.1L277.4,33.3z
				 M277.5,21.1l-5-0.1l0.1-7.2l5,0.1L277.5,21.1z"/>
		</g>
		<g>
			<g>
				<g>
					<path class="st0" d="M178.6,84.1c-4.5,0-8.3-3.5-8.7-8L167.4,47c-0.2-2.3,0.5-4.6,2-6.4c1.5-1.8,3.6-2.9,5.9-3.1l51.2-4.5
						c0.3,0,0.5,0,0.8,0c4.6,0,8.3,3.4,8.7,8l2.6,29.2c0.4,4.8-3.1,9-7.9,9.5l-51.2,4.5C179.1,84.1,178.9,84.1,178.6,84.1z"/>
					<path class="st0" d="M227.3,34.9c3.5,0,6.5,2.7,6.8,6.3l2.6,29.2c0.3,3.8-2.5,7.1-6.2,7.4l-51.2,4.5c-0.2,0-0.4,0-0.6,0
						c-3.5,0-6.5-2.7-6.8-6.3l-2.6-29.2c-0.3-3.8,2.5-7.1,6.2-7.4l51.2-4.5C226.9,34.9,227.1,34.9,227.3,34.9 M227.3,31.1
						C227.3,31.1,227.3,31.1,227.3,31.1c-0.3,0-0.6,0-0.9,0l-51.2,4.5c-2.8,0.2-5.4,1.6-7.2,3.7c-1.8,2.2-2.7,4.9-2.4,7.7l2.6,29.2
						c0.5,5.5,5,9.7,10.6,9.7c0.3,0,0.6,0,0.9,0l51.2-4.5c5.8-0.5,10.2-5.7,9.6-11.5l-2.6-29.2C237.4,35.3,232.9,31.1,227.3,31.1
						L227.3,31.1z"/>
				</g>
			</g>
			<g>
				<g>
					<path class="st0" d="M191.1,35.1c-0.5,0-0.9-0.4-1-0.9l-0.6-6.3c-0.1-0.9,0.2-1.9,0.8-2.6c0.6-0.7,1.5-1.2,2.4-1.3l14.3-1.2
						c0.1,0,0.2,0,0.3,0c1.8,0,3.4,1.4,3.6,3.3l0.6,6.3c0,0.5-0.3,1-0.9,1l-3.9,0.3c0,0-0.1,0-0.1,0c-0.2,0-0.4-0.1-0.6-0.2
						c-0.2-0.2-0.3-0.4-0.3-0.7l-0.4-4.1l-9.8,0.9l0.4,4.1c0,0.3-0.1,0.5-0.2,0.7s-0.4,0.3-0.7,0.3L191.1,35.1
						C191.2,35.1,191.2,35.1,191.1,35.1z"/>
					<path class="st0" d="M207.5,23.7c1.3,0,2.5,1,2.6,2.4l0.6,6.3l-3.9,0.3l-0.4-5l-11.7,1l0.4,5l-3.9,0.3l-0.6-6.3
						c-0.1-1.4,0.9-2.7,2.4-2.8l14.3-1.2C207.3,23.7,207.4,23.7,207.5,23.7 M207.5,21.7c-0.1,0-0.3,0-0.4,0L192.8,23
						c-2.5,0.2-4.3,2.4-4.1,4.9l0.6,6.3c0.1,1,0.9,1.8,1.9,1.8c0.1,0,0.1,0,0.2,0l3.9-0.3c0.5,0,1-0.3,1.3-0.7s0.5-0.9,0.4-1.4
						l-0.3-3.1l7.8-0.7l0.3,3.1c0,0.5,0.3,1,0.7,1.3c0.3,0.3,0.8,0.5,1.2,0.5c0.1,0,0.1,0,0.2,0l3.9-0.3c1.1-0.1,1.9-1,1.8-2.1
						l-0.6-6.3C211.8,23.6,209.8,21.7,207.5,21.7L207.5,21.7C207.5,21.7,207.5,21.7,207.5,21.7L207.5,21.7z"/>
				</g>
				<path class="st2" d="M194.6,28.7l11.7-1l0.4,5l3.9-0.3l-0.6-6.3c-0.1-1.4-1.4-2.5-2.8-2.4L193,24.9c-1.4,0.1-2.5,1.4-2.4,2.8
					l0.6,6.3l3.9-0.3L194.6,28.7z"/>
				<path class="st2" d="M228.4,34.7l-54.5,4.8c-2.9,0.2-5,2.8-4.7,5.6l0.9,10.5l64.9-5.7L234,39.5
					C233.8,36.6,231.2,34.5,228.4,34.7z"/>
				<path class="st2" d="M172,77.6c0.2,2.9,2.8,5,5.6,4.7l33.7-2.9l-4.5-3.8c-0.8,0.4-1.7,0.6-2.7,0.7c-4.5,0.4-8.5-2.9-8.9-7.5
					c-0.1-0.9,0-1.9,0.2-2.7l4.8,4c0.1,0.1,0.4,0.2,0.6,0.1L204,69c0.2-0.1,0.3-0.3,0.4-0.4l0.6-3.4c0-0.2-0.1-0.4-0.2-0.5l-4.8-4
					c0.8-0.4,1.7-0.6,2.7-0.7c4.5-0.4,8.5,2.9,8.9,7.5c0.1,0.9,0,1.9-0.2,2.7l10,8.4l10.8-0.9c2.9-0.2,5-2.8,4.7-5.6l-1.6-18
					l-64.9,5.7L172,77.6z"/>
			</g>
		</g>
		<g>
			<g>
				<path class="st1" d="M260,94c-11.6,0-17.5-4.5-22.3-8.2c-4.5-3.4-7-5.2-12.7-5.2c-5.6,0-8.2,1.8-12.7,5.2
					c-4.8,3.6-10.7,8.2-22.3,8.2c-11.6,0-17.5-4.5-22.3-8.2c-4.5-3.4-7-5.2-12.7-5.2v-9.7c11.6,0,17.5,4.5,22.3,8.2
					c4.5,3.4,7,5.2,12.7,5.2c5.6,0,8.2-1.8,12.7-5.2c4.8-3.6,10.7-8.2,22.3-8.2c11.6,0,17.5,4.5,22.3,8.2c4.5,3.4,7,5.2,12.7,5.2
					c5.6,0,8.2-1.8,12.7-5.2c4.8-3.6,10.7-8.2,22.3-8.2v9.7c-5.6,0-8.2,1.8-12.7,5.2C277.5,89.4,271.6,94,260,94z"/>
			</g>
		</g>
	</g>
</g>
<g>
	<rect x="300" class="st0" width="150" height="100"/>
	<g>
		<g>
			<g>
				<path class="st1" d="M408.6,44.2c-11.3,0-17-4.4-21.7-8c-4.3-3.3-6.8-5-12.3-5c-5.5,0-8,1.7-12.3,5c-4.6,3.5-10.4,8-21.7,8
					c-11.3,0-17-4.4-21.7-8c-4.3-3.3-6.8-5-12.3-5v-9.4c11.3,0,17,4.4,21.7,8c4.3,3.3,6.8,5,12.3,5c5.5,0,8-1.7,12.3-5
					c4.6-3.5,10.4-8,21.7-8c11.3,0,17,4.4,21.7,8c4.3,3.3,6.8,5,12.3,5c5.5,0,8-1.7,12.3-5c4.6-3.5,10.4-8,21.7-8v9.4
					c-5.5,0-8,1.7-12.3,5C425.6,39.8,419.8,44.2,408.6,44.2z"/>
			</g>
		</g>
		<g>
			<g>
				<path class="st2" d="M321.8,50.7c-0.5,0-1-0.5-1.1-1.1c0-0.1,0-0.2,0-0.3c0-1,0.8-1.6,1.8-1.6c0,0,2.5,0.1,2.5,0.1l1.3-21.5
					l-8.2-0.4c-0.6,0-1-0.5-1.2-0.8c-0.2-0.4-0.3-1-0.1-1.5l5.5-14.2c0.1-0.3,0.4-0.8,1.3-0.8c0,0,9.8,0.4,9.8,0.4
					c1,0,1.3,0.6,1.4,0.9l4.2,14.6c0.1,0.4,0,1.1-0.3,1.5c-0.4,0.5-0.8,0.8-1.2,0.8l-8.2-0.4l-0.6,21.5l2.4,0.1c0.5,0,1,0.2,1.3,0.6
					c0.3,0.3,0.5,0.8,0.5,1.3c0,0.1,0,0.1,0,0.2c-0.1,0.5-0.5,1.1-1.1,1.1C331.7,51.1,321.8,50.7,321.8,50.7z"/>
				<path class="st0" d="M323.6,9.1C323.7,9.1,323.7,9.1,323.6,9.1l9.8,0.4c0.4,0,0.8,0.2,1,0.6l4.2,14.6c0.1,0.3,0,0.7-0.2,0.9
					c-0.2,0.3-0.5,0.4-0.8,0.4c0,0,0,0,0,0l-8.6-0.2l-0.7,22.5l2.8,0.2c0.8,0,1.4,0.6,1.4,1.4c0,0.1,0,0.2,0,0.2
					c-0.1,0.3-0.4,0.9-0.7,0.9c0,0,0,0,0,0l-9.9-0.6c-0.3,0-0.6-0.4-0.7-0.8c0-0.1,0-0.2,0-0.3c0-0.8,0.7-1.2,1.4-1.2
					c0,0,0.1,0,0.1,0l2.8,0.1l1.3-22.3l-8.6-0.4c-0.3,0-0.6-0.3-0.8-0.6c-0.2-0.3-0.2-0.8-0.1-1.1l5.5-14.2
					C322.9,9.2,323.2,9.1,323.6,9.1 M323.6,8.2c-1.2,0-1.6,0.7-1.7,1.1l-5.5,14.2c-0.2,0.6-0.2,1.4,0.2,1.9c0.4,0.6,0.9,1,1.5,1
					l7.7,0.3l-1.2,20.6l-1.9-0.1c0,0-0.1,0-0.1,0c-1.3,0-2.2,0.9-2.3,2c0,0.1,0,0.3,0,0.3c0.1,0.8,0.7,1.5,1.5,1.5l9.9,0.4
					c0,0,0,0,0.1,0c0.8,0,1.4-0.7,1.6-1.4c0-0.1,0-0.1,0-0.2c0-0.6-0.2-1.2-0.6-1.6c-0.4-0.4-1-0.7-1.6-0.7l-1.9-0.1l0.6-20.6
					l7.7,0.3c0,0,0,0,0.1,0c0.5,0,1-0.3,1.5-0.9c0.4-0.5,0.5-1.4,0.3-1.9l-4.2-14.6c-0.1-0.3-0.5-1.2-1.8-1.2l-9.7-0.4
					C323.7,8.2,323.7,8.2,323.6,8.2L323.6,8.2z"/>
			</g>
			<polygon class="st0" points="319.7,23.4 324.4,11.3 332.6,11.7 336.2,24.1 			"/>
		</g>
		<g>
			<path class="st0" d="M437.7,26.5c-0.2,0-1-0.1-1.2-0.1c0.1-0.2-0.4-0.5-0.4-0.8l0.3-3.5c0.4-5.1-2-10.6-7-11.1l-28.2-2.5
				c-5.1-0.4-10.2,4.5-10.6,9.5l-0.3,3.5c0,0.3,0.3,0.5,0.4,0.8c-0.2,0-0.2,0-0.4-0.1c-4.6-0.4-9.2,2.9-9.6,7.5
				c-0.2,2.4,0.9,4.8,1.7,6.4l-1.4,16c-0.1,1.6,2.4,2.9,4,3l5,0.4c1.4,0.1,2.7-0.7,3.1-2c0.2,0.2,0.6,0.4,0.9,0.5l34.7,3
				c0.4,0,0.7-0.1,1-0.3c0.2,1.3,1.3,2.4,2.7,2.5l5,0.4c1.6,0.1,2.5-0.8,2.7-2.4l1.4-16c1.1-1.5,3.4-3.6,3.6-6
				C445.4,31,442.2,26.9,437.7,26.5z"/>
			<path class="st3" d="M429.2,13.9l-28.2-2.5c-4.2-0.4-8,2.8-8.3,7l-0.3,3.5c4.1,1.2,6.9,5.2,6.5,9.6c-0.1,1.1-0.4,2.1-0.8,3
				c0.1,0,0.2,0,0.3,0l29.3,2.6c0.1,0,0.2,0,0.3,0c-0.3-1-0.4-2.1-0.3-3.1c0.4-4.4,3.8-7.8,8.1-8.3l0.3-3.5
				C436.5,18,433.4,14.2,429.2,13.9L429.2,13.9z M428.7,56L394,53l0.6-6.4c0.7,0.5,1.6,0.9,2.6,1l29.3,2.6c1,0.1,1.9-0.1,2.7-0.5
				L428.7,56L428.7,56z M390.2,23.9c-3.7-0.3-7,2.4-7.4,6.2c-0.2,2.3,0.7,4.4,2.4,5.8l-1.5,16.7c-0.1,0.8,0.5,1.5,1.3,1.6l5,0.4
				c0.8,0.1,1.5-0.5,1.6-1.3l1.5-16.7c1.8-1.1,3.1-3,3.3-5.3C396.7,27.5,393.9,24.2,390.2,23.9L390.2,23.9z M437.5,28
				c-3.7-0.3-7,2.4-7.4,6.2c-0.2,2.3,0.7,4.4,2.4,5.8l-1.5,16.7c-0.1,0.8,0.5,1.5,1.3,1.6l5,0.4c0.8,0.1,1.5-0.5,1.6-1.3l1.5-16.7
				c1.8-1.1,3.1-3,3.3-5.3C444,31.7,441.3,28.4,437.5,28L437.5,28z M427.5,39.5l-29.3-2.6c-1.6-0.1-3,1-3.1,2.6l-0.2,2.5
				c-0.1,1.6,1,3,2.6,3.1l29.3,2.6c1.6,0.1,3-1,3.1-2.6l0.2-2.5C430.2,41,429,39.6,427.5,39.5L427.5,39.5z"/>
		</g>
		<g>
			<g>
				<path class="st1" d="M408.6,67.8c-11.3,0-17-4.4-21.7-8c-4.3-3.3-6.8-5-12.3-5c-5.5,0-8,1.7-12.3,5c-4.6,3.5-10.4,8-21.7,8
					c-11.3,0-17-4.4-21.7-8c-4.3-3.3-6.8-5-12.3-5v-9.4c11.3,0,17,4.4,21.7,8c4.3,3.3,6.8,5,12.3,5c5.5,0,8-1.7,12.3-5
					c4.6-3.5,10.4-8,21.7-8c11.3,0,17,4.4,21.7,8c4.3,3.3,6.8,5,12.3,5c5.5,0,8-1.7,12.3-5c4.6-3.5,10.4-8,21.7-8v9.4
					c-5.5,0-8,1.7-12.3,5C425.6,63.4,419.8,67.8,408.6,67.8z"/>
			</g>
		</g>
		<g>
			<g>
				<path class="st1" d="M408.6,91.4c-11.3,0-17-4.4-21.7-8c-4.3-3.3-6.8-5-12.3-5c-5.5,0-8,1.7-12.3,5c-4.6,3.5-10.4,8-21.7,8
					c-11.3,0-17-4.4-21.7-8c-4.3-3.3-6.8-5-12.3-5V69c11.3,0,17,4.4,21.7,8c4.3,3.3,6.8,5,12.3,5c5.5,0,8-1.7,12.3-5
					c4.6-3.5,10.4-8,21.7-8c11.3,0,17,4.4,21.7,8c4.3,3.3,6.8,5,12.3,5c5.5,0,8-1.7,12.3-5c4.6-3.5,10.4-8,21.7-8v9.4
					c-5.5,0-8,1.7-12.3,5C425.6,86.9,419.8,91.4,408.6,91.4z"/>
			</g>
		</g>
		<g>
			<path class="st0" d="M389.1,48.8c0.2-0.3,0.1-0.6,0.1-0.9l-0.3-3.3c-0.4-5.1-4.7-9-9.7-8.6l-59.5,5.2c-5.1,0.4-8.9,5.1-8.5,10.1
				l0.3,3.3c0,0.3,0.3,0.6,0.5,0.9c-4.2,0.8-7.4,4.6-7,8.9c0.2,2.4,2.1,4.5,3.2,6l1.4,16c0.1,1.6,2.1,2.6,3.7,2.5l5-0.4
				c1.3-0.1,2.4-1.2,2.6-2.4c0.3,0.2,0.7,0.3,1,0.2l62.9-5.5c0.4,0,0.7-0.1,1-0.4c0.5,1.2,1.7,2,3,1.9l5-0.4c1.6-0.1,2-1.3,1.9-2.9
				l-1.4-16c2.7-1.8,2.9-4.1,2.7-6.5C396.6,52.2,393.4,48.9,389.1,48.8z"/>
			<path class="st3" d="M351.4,60.6L351.4,60.6c0.5,0,0.9-0.5,0.8-1L351,45.8c0-0.5-0.5-0.9-1-0.8l0,0c-0.5,0-0.9,0.5-0.8,1
				l1.2,13.7C350.5,60.2,350.9,60.6,351.4,60.6L351.4,60.6z M313,57c-3.7,0.3-6.5,3.6-6.2,7.4c0.2,2.3,1.5,4.2,3.3,5.3l1.5,16.7
				c0.1,0.8,0.8,1.4,1.6,1.3l5-0.4c0.8-0.1,1.4-0.8,1.3-1.6L318,68.9c1.6-1.4,2.6-3.5,2.4-5.8C320.1,59.4,316.8,56.7,313,57L313,57z
				 M388.6,50.4c-3.7,0.3-6.5,3.6-6.2,7.4c0.2,2.3,1.5,4.2,3.3,5.3l1.5,16.7c0.1,0.8,0.8,1.4,1.6,1.3l5-0.4c0.8-0.1,1.4-0.8,1.3-1.6
				l-1.5-16.7c1.6-1.4,2.6-3.5,2.4-5.8C395.6,52.8,392.3,50,388.6,50.4L388.6,50.4z M379.4,37.7c-19.8,1.7-39.6,3.5-59.5,5.2
				c-4.2,0.4-7.4,4.1-7,8.3l0.3,3.3c4.9-0.2,9.1,3.5,9.6,8.4c0.1,1.1,0,2.1-0.3,3.1l58.3-5.1c-0.4-0.9-0.7-2-0.8-3l0-0.2l0,0l0-0.2
				l0,0l0-0.2l0,0l0-0.2l0,0l0-0.1l0-0.2l0,0l0-0.2l0,0l0-0.2l0,0l0-0.2l0,0l0-0.1l0-0.1l0-0.1l0-0.1l0-0.1l0-0.1l0-0.1l0-0.1l0-0.1
				l0-0.1l0-0.1l0-0.1l0-0.1l0-0.1l0-0.1l0-0.1l0-0.1l0-0.1l0.1-0.1l0-0.1l0-0.1l0-0.1l0-0.1l0-0.1l0-0.1l0-0.1l0.1-0.1l0-0.1
				L381,53l0.1-0.1l0-0.1l0.1-0.1l0-0.1l0.1-0.1l0-0.1l0.1-0.1l0-0.1l0.1-0.1l0.1-0.1l0.1-0.1l0.1-0.1l0,0l0.1-0.1l0-0.1l0.1-0.1
				l0,0l0.1-0.1l0,0l0.1-0.1l0,0l0.1-0.1l0,0l0,0l0.1-0.1l0.1-0.1l0,0l0.2-0.2l0.2-0.1l0,0l0.2-0.1l0,0l0.2-0.1l0.1-0.1l0,0l0,0
				l0.2-0.1l0,0l0.2-0.1l0.2-0.1l0,0c0.1-0.1,0.2-0.2,0.4-0.2l0,0l0.1-0.1l0.1,0c0.1-0.1,0.2-0.1,0.4-0.2l0,0L385,49l0.1,0l0.1-0.1
				l0,0l0.2-0.1l0.1,0l0.2-0.1l0,0l0.2-0.1l0,0l0.2-0.1l0,0l0.2-0.1l0,0l0.2-0.1l0.1,0l0.2-0.1l0,0l0.2,0l0,0l0.2,0l0,0l0.2,0l0,0
				l0.2,0l0.1,0l0.2,0l0,0l0.2,0l0,0l-0.3-3.3C387.3,40.5,383.6,37.3,379.4,37.7L379.4,37.7z M384.8,79.7l-62.9,5.5l-0.6-6.5
				c0.7,0.3,1.5,0.4,2.4,0.3L382,74c0.8-0.1,1.6-0.3,2.3-0.7L384.8,79.7L384.8,79.7z M381,63.3l-58.3,5.1c-1.6,0.1-2.8,1.5-2.6,3.1
				l0.2,2.5c0.1,1.6,1.5,2.8,3.1,2.6l58.3-5.1c1.6-0.1,2.8-1.5,2.6-3.1l-0.2-2.5C384,64.4,382.6,63.2,381,63.3L381,63.3z"/>
		</g>
	</g>
</g>
<g>
	<rect x="450" class="st0" width="150" height="100"/>
	<g>
		<g>
			<linearGradient id="SVGID_1_" gradientUnits="userSpaceOnUse" x1="525" y1="96.7905" x2="525" y2="25.8828">
				<stop  offset="0" style="stop-color:#F3C000"/>
				<stop  offset="0.5" style="stop-color:#E20613"/>
				<stop  offset="1" style="stop-color:#CB171A"/>
			</linearGradient>
			<path class="st4" d="M575.8,38.8c-3.5,12.6-5.5,20.1-11.4,18c-5.8-2.1-2.2-15-6.4-20.4c0.4,7-0.3,8.9-0.7,11
				c-0.7,3.6-5.7-2.8-6.8-9.7c-1.9,10,7.5,20.7,5.4,27.3c-1.7,5.2-8.6,3.3-9-2.7c-0.5-7.2,5.1-11.9,0.3-16.5c0.9,3-0.2,5.8-3.7,5.9
				c-5.9,0.2-11.1-11.1-10.6-19.3c-4.4,11.2,2.9,18.4,3.3,23.5c0.4,4.7-2.1,5.8-4.8,4.1c-2-1.2-2.6-4.2-1.5-8
				c2.6-9.4,10.8-16.4,7.8-23.7c-0.2,7.9-10.1,13.4-12.9,22.1c-1.1,3.4-1.1,5.8-1.7,7.6c-2.9,9.1-9.9,3.4-4.3-4.4
				c4.8-6.7-2.3-19.5-2.3-23.5c-2.6,3.5-0.6,9.2-0.8,15.4c-0.1,5.4-4.8,8.5-6.1,2.8c-0.3-1.2,0.3-4.6,0-6.5
				c-4.3,7.7-0.9,17.2-2.7,23.5c-1.1,3.9-4.9,2.9-5.5,2.8c-4.1-0.7-4.7-5.3-1.8-9.2c4.1-5.4,3.8-10.5,0.8-15.3
				c0.4,3.8-0.1,10.6-2.4,9.5c-1.7-0.9-1.3-3.5-1.2-4.8c0.1-1.1,2.5-8.3-0.9-12.9c1.2,9.6-1.6,7.9-2.4,7.2c-2.6-2.4-5-9.7-3.8-14.5
				c-5.2,10,2.6,21.2,1,28.9c-0.8,3.7-3.2,3.8-4.5,3.4c-7.5-2,0.3-14.3-3.5-18.3c-0.4,6.8-4.8,7.1-6.7,7.1c-2.9,0-5.6-3.5-5.3-6.9
				c0.3-3.9,4.7-7.5,2.8-11.7c-0.9,4.7-8,6.7-7.1,13.6c0.7,5.5,5.1,8.1,9.1,11.8c1.3,1.1,2.1,2.6,2.5,4c0.4,1.5-0.4,5.7-2.6,5
				c-4.3-1.4-1.7-5-1.1-10c0.7-6.7,4.1-10,0-17.9c1.3,7.3-2.3,9.5-3.6,14.8c-1.8,6.9-7.4,4.3-8.4,1.7c-0.8-2.4,0-4.4-1.2-8.3
				c-1-3.2-1.8-4.7-1.7-8.5c0.1-2.1,0.4-4.1,1-6c-1.8,1.2-3.3,1.9-3.6,5.9c-0.4,5.4,2.6,12.9-2.2,19.1v41.4h140V55.4
				c-1.5,1.7-4.7,2.3-4.9-1.9c-0.3-4.6,4.5-6.7,3.5-12.5c-1.1-6.6-3.2-7.5-2.1-15.1c-4.3,4.7-2.3,11.3-1.9,16.2
				c0.7,8.3-2.2,9.2-4.9,12.8c-2.5,3.2-2.3,4-5.7,1c-1.3-1.2-4.4-4.2-6.3-8.8c-2.1-5.2,2.3-9.9-1.6-17.4c0.9,8.7-3.6,13.3-1.8,19.6
				c1.2,4.2,5.9,8.2,7,10.7c1.2,2.8,1,5.2-1.5,5.2c-2.1,0-2.8-2.1-2.1-4.8C573.7,56.6,577.9,50.1,575.8,38.8z"/>
		</g>
		<g>
			<g>
				<g>
					<path class="st0" d="M489.1,88.5c-4.3,0-7.9-3.3-8.2-7.6l-3.6-45.2c-0.4-4.5,3-8.5,7.6-8.9l75.4-6c0.2,0,0.4,0,0.7,0
						c4.3,0,7.9,3.3,8.2,7.6l3.6,45.2c0.4,4.5-3,8.5-7.6,8.9l-75.4,6C489.5,88.5,489.3,88.5,489.1,88.5z"/>
					<path class="st0" d="M560.9,22.3c3.5,0,6.5,2.7,6.8,6.3l3.6,45.2c0.3,3.8-2.5,7.1-6.3,7.4l-75.4,6c-0.2,0-0.4,0-0.6,0
						c-3.5,0-6.5-2.7-6.8-6.3l-3.6-45.2c-0.3-3.8,2.5-7.1,6.3-7.4l75.4-6C560.6,22.3,560.8,22.3,560.9,22.3 M560.9,19.5
						c-0.3,0-0.5,0-0.8,0l-75.4,6c-5.3,0.4-9.3,5.1-8.9,10.4l3.6,45.2c0.4,5,4.6,8.9,9.6,8.9c0.3,0,0.5,0,0.8,0l75.4-6
						c5.3-0.4,9.3-5.1,8.9-10.4l-3.6-45.2C570.1,23.4,565.9,19.5,560.9,19.5L560.9,19.5z"/>
				</g>
			</g>
			<g>
				<path class="st2" d="M513.8,13.7l16-1.3l0.6,6.9l5.3-0.4l-0.7-8.7c-0.2-2-1.9-3.4-3.8-3.3l-19.6,1.6c-2,0.2-3.4,1.9-3.3,3.8
					l0.7,8.7l5.3-0.4L513.8,13.7z"/>
				<path class="st2" d="M560.1,22.3l-74.8,6c-3.9,0.3-6.9,3.8-6.6,7.7l1.2,14.5l89.1-7.1l-1.2-14.5C567.5,25,564,22,560.1,22.3z"/>
				<path class="st2" d="M482.2,80.5c0.3,3.9,3.8,6.9,7.7,6.6l46.3-3.7l-6.2-5.3c-1.1,0.5-2.4,0.8-3.7,0.9
					c-6.2,0.5-11.6-4.1-12.1-10.3c-0.1-1.3,0-2.6,0.3-3.7l6.5,5.5c0.2,0.2,0.5,0.2,0.8,0.1l4.4-1.6c0.2-0.1,0.5-0.3,0.5-0.6l0.9-4.6
					c0-0.2-0.1-0.6-0.3-0.7l-6.5-5.6c1.1-0.5,2.4-0.8,3.7-0.9c6.2-0.5,11.6,4.1,12.1,10.3c0.1,1.3,0,2.6-0.3,3.8L550,82.3l14.8-1.2
					c3.9-0.3,6.9-3.8,6.6-7.7l-2-24.7l-89.1,7.1L482.2,80.5z"/>
			</g>
		</g>
		<g>
			<linearGradient id="SVGID_2_" gradientUnits="userSpaceOnUse" x1="522.0293" y1="96.6349" x2="522.0293" y2="23.1546">
				<stop  offset="0" style="stop-color:#F3C000"/>
				<stop  offset="0.5" style="stop-color:#E20613"/>
				<stop  offset="1" style="stop-color:#CB171A"/>
			</linearGradient>
			<path class="st5" d="M565.2,67.7c-2.9,8.8-4.7,14.1-9.7,12.6c-4.9-1.5-1.9-10.5-5.4-14.3c0.3,4.9-0.2,6.2-0.6,7.7
				c-0.6,2.5-4.9-2-5.8-6.8c-1.6,7,6.4,14.5,4.5,19.1c-1.4,3.7-7.3,2.3-7.6-1.9c-0.4-5,4.3-8.3,0.3-11.6c0.7,2.1-0.2,4-3.1,4.1
				c-5,0.2-9.4-7.8-9-13.5c-3.7,7.8,2.5,12.9,2.8,16.5c0.3,3.3-1.8,4.1-4.1,2.9c-1.7-0.8-2.2-3-1.3-5.6c2.2-6.5,9.2-11.5,6.7-16.6
				c-0.1,5.5-8.6,9.4-11,15.5c-0.9,2.4-0.9,4-1.4,5.3c-2.5,6.3-8.4,2.4-3.6-3.1c4.1-4.7-2-13.6-2-16.5c-2.2,2.4-0.5,6.5-0.7,10.8
				c-0.1,3.7-4.1,5.9-5.2,2c-0.2-0.8,0.3-3.2,0-4.6c-3.6,5.4-0.8,12-2.3,16.5c-0.9,2.7-4.2,2-4.6,2c-3.5-0.5-4-3.7-1.5-6.4
				c3.5-3.8,3.2-7.3,0.7-10.7c0.3,2.6-0.1,7.4-2,6.6c-1.5-0.7-1.1-2.4-1-3.4c0.1-0.8,2.1-5.8-0.7-9.1c1.1,6.7-1.4,5.6-2,5
				c-2.2-1.7-4.2-6.8-3.2-10.2c-4.4,7,2.2,14.8,0.9,20.2c-0.7,2.6-2.7,2.6-3.8,2.4c-6.4-1.4,0.2-10-2.9-12.8c-0.3,4.8-4,5-5.7,5
				c-2.5,0-4.8-2.4-4.5-4.8c0.3-2.7,4-5.3,2.4-8.2c-0.8,3.3-6.8,4.7-6,9.5c0.6,3.9,4.3,5.7,7.7,8.2c1.1,0.8,1.8,1.8,2.1,2.8
				c0.3,1-0.3,4-2.2,3.5c-3.7-1-1.4-3.5-0.9-7c0.6-4.7,3.5-7,0-12.5c1.1,5.1-2,6.7-3.1,10.3c-1.5,4.9-6.3,3-7.1,1.2
				c-0.7-1.7,0-3.1-1-5.8c-0.8-2.2-1.6-3.3-1.4-6c0.1-1.5,0.3-2.9,0.9-4.2c-1.5,0.8-2.8,1.3-3.1,4.1c-0.3,3.8,2.2,9-1.9,13.4v17.5
				h118.9V79.3c-1.2,1.2-4,1.6-4.2-1.4c-0.2-3.2,3.8-4.7,2.9-8.7c-1-4.6-2.7-5.3-1.8-10.6c-3.7,3.3-2,7.9-1.6,11.3
				c0.6,5.8-1.8,6.4-4.2,9c-2.1,2.2-2,2.8-4.8,0.7c-1.1-0.8-3.8-2.9-5.3-6.1c-1.8-3.7,1.9-6.9-1.4-12.2c0.8,6.1-3,9.3-1.5,13.7
				c1,3,5,5.7,5.9,7.5c1,1.9,0.8,3.6-1.2,3.6c-1.8,0-2.4-1.5-1.8-3.4C563.3,80.1,567,75.6,565.2,67.7z"/>
		</g>
	</g>
</g>
<g>
	<rect y="100" class="st0" width="150" height="100"/>
	<g>
		<g>
			<linearGradient id="SVGID_3_" gradientUnits="userSpaceOnUse" x1="75" y1="196.6667" x2="75" y2="148.3923">
				<stop  offset="0" style="stop-color:#F3C000"/>
				<stop  offset="0.5" style="stop-color:#E20613"/>
				<stop  offset="1" style="stop-color:#CB171A"/>
			</linearGradient>
			<path class="st6" d="M125.8,161.3c-3.5,12.6-5.5,20.1-11.4,18c-5.8-2.1-2.2-15-6.4-20.4c0.4,7-0.3,8.9-0.7,11
				c-0.7,3.6-5.7-2.8-6.8-9.7c-1.9,10,7.5,20.7,5.4,27.3c-1.7,5.2-8.6,3.3-9-2.7c-0.5-7.2,5.1-11.9,0.3-16.5c0.9,3-0.2,5.8-3.7,5.9
				c-5.9,0.2-11.1-11.1-10.6-19.3c-4.4,11.2,2.9,18.4,3.3,23.5c0.4,4.7-2.1,5.8-4.8,4.1c-2-1.2-2.6-4.2-1.5-8
				c2.6-9.4,10.8-16.4,7.8-23.7c-0.2,7.9-10.1,13.4-12.9,22.1c-1.1,3.4-1.1,5.8-1.7,7.6c-2.9,9.1-9.9,3.4-4.3-4.4
				c4.8-6.7-2.3-19.5-2.3-23.5c-2.6,3.5-0.6,9.2-0.8,15.4c-0.1,5.4-4.8,8.5-6.1,2.8c-0.3-1.2,0.3-4.6,0-6.5
				c-4.3,7.7-0.9,17.2-2.7,23.5c-1.1,3.9-4.9,2.9-5.5,2.8c-4.1-0.7-4.7-5.3-1.8-9.2c4.1-5.4,3.8-10.5,0.8-15.3
				c0.4,3.8-0.1,10.6-2.4,9.5c-1.7-0.9-1.3-3.5-1.2-4.8c0.1-1.1,2.5-8.3-0.9-12.9c1.2,9.6-1.6,7.9-2.4,7.2c-2.6-2.4-5-9.7-3.8-14.5
				c-5.2,10,2.6,21.2,1,28.9c-0.8,3.7-3.2,3.8-4.5,3.4c-7.5-2,0.3-14.3-3.5-18.3c-0.4,6.8-4.8,7.1-6.7,7.1c-2.9,0-5.6-3.5-5.3-6.9
				c0.3-3.9,4.7-7.5,2.8-11.7c-0.9,4.7-8,6.7-7.1,13.6c0.7,5.5,5.1,8.1,9.1,11.8c1.3,1.1,2.1,2.6,2.5,4c0.4,1.5-0.4,5.7-2.6,5
				c-4.3-1.4-1.7-5-1.1-10c0.7-6.7,4.1-10,0-17.9c1.3,7.3-2.3,9.5-3.6,14.8c-1.8,6.9-7.4,4.3-8.4,1.7c-0.8-2.4,0-4.4-1.2-8.3
				c-1-3.2-1.8-4.7-1.7-8.5c0.1-2.1,0.4-4.1,1-6c-1.8,1.2-3.3,1.9-3.6,5.9c-0.4,5.4,2.6,12.9-2.2,19.1v18.8h140v-18.8
				c-1.5,1.7-4.7,2.3-4.9-1.9c-0.3-4.6,4.5-6.7,3.5-12.5c-1.1-6.6-3.2-7.5-2.1-15.1c-4.3,4.7-2.3,11.3-1.9,16.2
				c0.7,8.3-2.2,9.2-4.9,12.8c-2.5,3.2-2.3,4-5.7,1c-1.3-1.2-4.4-4.2-6.3-8.8c-2.1-5.2,2.3-9.9-1.6-17.4c0.9,8.7-3.6,13.3-1.8,19.6
				c1.2,4.2,5.9,8.2,7,10.7c1.2,2.8,1,5.2-1.5,5.2c-2.1,0-2.8-2.1-2.1-4.8C123.7,179.1,127.9,172.6,125.8,161.3z"/>
		</g>
		<g>
			<g>
				<path class="st2" d="M91.2,108.3H57.6c-1.4,0-2.5-1.1-2.5-2.5l0,0c0-1.4,1.1-2.5,2.5-2.5h33.6c1.4,0,2.5,1.1,2.5,2.5v0
					C93.7,107.2,92.6,108.3,91.2,108.3z"/>
			</g>
			<g>
				<path class="st2" d="M82,109.2l-1.8,10.4c0,0.2-0.1,0.4-0.3,0.5l-3.3,2.5c-0.2,0.1-0.3,0.4-0.3,0.6l0,0c0,0.4-0.3,0.8-0.8,0.8
					h-1h-0.3h-1c-0.4,0-0.8-0.3-0.8-0.8l0,0c0-0.2-0.1-0.5-0.3-0.6l-3.3-2.5c-0.2-0.1-0.3-0.3-0.3-0.5l-1.8-10.4l-4.1,0l2,12.7
					c0,0.2,0.1,0.4,0.3,0.5l3.3,2.5v3.3h6h0.3h6v-3.3l3.3-2.5c0.2-0.1,0.3-0.3,0.3-0.5l2-12.7H82z"/>
			</g>
			<g>
				<polygon class="st2" points="80.3,111 68.5,111 68,109.2 80.8,109.2 				"/>
			</g>
			<g>
				<g>
					<path class="st7" d="M74.4,120.1L74.4,120.1c-0.7,0-1.3-0.6-1.3-1.3v-7.2h2.7v7.2C75.7,119.5,75.1,120.1,74.4,120.1z"/>
				</g>
			</g>
			<g>
				<rect x="66" y="129.3" class="st2" width="16.8" height="1.2"/>
			</g>
			<g>
				<path class="st1" d="M84.4,134.4L84.4,134.4c-0.3-0.9-1.1-1.3-1.9-1l-0.2,0.1c-0.8,0.2-1.2,1.1-1,1.8l0,0.1
					c0.2,0.8,1.1,1.2,1.8,1l0.2-0.1C84.2,136,84.7,135.1,84.4,134.4z"/>
			</g>
			<g>
				<path class="st1" d="M86.3,140.1L86.3,140.1c-0.3-0.8-1.1-1.2-1.9-1l-0.2,0.1c-0.8,0.2-1.2,1.1-1,1.8l0,0c0.2,0.8,1.1,1.2,1.8,1
					l0.2-0.1C86.1,141.7,86.5,140.8,86.3,140.1z"/>
			</g>
			<g>
				<path class="st1" d="M88.1,145.8L88.1,145.8c-0.3-0.8-1.1-1.2-1.9-1l-0.2,0.1c-0.8,0.2-1.2,1.1-1,1.8l0,0c0.2,0.8,1.1,1.2,1.8,1
					l0.2-0.1C87.9,147.4,88.4,146.6,88.1,145.8z"/>
			</g>
			<g>
				<path class="st1" d="M77.8,133.3l-0.2,0c-0.8,0-1.5,0.6-1.5,1.4l0,0.1c0,0.8,0.6,1.5,1.4,1.5l0.2,0c0.8,0,1.5-0.6,1.5-1.4l0-0.1
					C79.2,134,78.6,133.3,77.8,133.3z"/>
			</g>
			<g>
				<path class="st1" d="M78.3,142c0.8,0,1.5-0.6,1.5-1.4l0,0c0-0.8-0.6-1.5-1.4-1.5l-0.2,0c-0.8,0-1.5,0.6-1.5,1.4l0,0
					c0,0.8,0.6,1.5,1.4,1.5L78.3,142z"/>
			</g>
			<g>
				<path class="st1" d="M80.4,146.2c0-0.8-0.6-1.5-1.4-1.5l-0.2,0c-0.8,0-1.5,0.6-1.5,1.4l0,0c0,0.8,0.6,1.5,1.4,1.5l0.2,0
					C79.8,147.7,80.4,147.1,80.4,146.2L80.4,146.2z"/>
			</g>
			<g>
				<path class="st1" d="M72.4,136.3c0.8,0,1.5-0.6,1.5-1.4l0,0c0-0.8-0.6-1.5-1.4-1.5l-0.2,0c-0.8,0-1.5,0.6-1.5,1.4
					c0,0.8,0.6,1.5,1.4,1.5L72.4,136.3z"/>
			</g>
			<g>
				<path class="st1" d="M71.8,142c0.8,0,1.5-0.6,1.5-1.4l0,0c0-0.8-0.6-1.5-1.4-1.5l-0.2,0c-0.8,0-1.5,0.6-1.5,1.4l0,0
					c0,0.8,0.6,1.5,1.4,1.5L71.8,142z"/>
			</g>
			<g>
				<path class="st1" d="M72.7,146.2c0-0.8-0.6-1.5-1.4-1.5l-0.2,0c-0.8,0-1.5,0.6-1.5,1.4l0,0c0,0.8,0.6,1.5,1.4,1.5l0.2,0
					C72,147.7,72.7,147.1,72.7,146.2L72.7,146.2z"/>
			</g>
			<g>
				<path class="st1" d="M66.5,136.2l0.2,0.1c0.8,0.3,1.6-0.2,1.9-0.9l0,0c0.3-0.8-0.2-1.6-0.9-1.9l-0.2-0.1
					c-0.8-0.3-1.6,0.2-1.9,0.9l0,0C65.3,135.1,65.8,135.9,66.5,136.2z"/>
			</g>
			<g>
				<path class="st1" d="M64.7,141.9l0.2,0.1c0.8,0.3,1.6-0.2,1.9-0.9l0,0c0.3-0.8-0.2-1.6-0.9-1.9l-0.2-0.1
					c-0.8-0.3-1.6,0.2-1.9,0.9l0,0C63.5,140.8,63.9,141.6,64.7,141.9z"/>
			</g>
			<g>
				<path class="st1" d="M64.9,146.7c0.3-0.8-0.2-1.6-0.9-1.9l-0.2-0.1c-0.8-0.3-1.6,0.2-1.9,0.9l0,0c-0.3,0.8,0.2,1.6,0.9,1.9
					l0.2,0.1C63.8,147.9,64.6,147.5,64.9,146.7L64.9,146.7z"/>
			</g>
			<g>
				<path class="st1" d="M61,136l0.2,0.1c0.7,0.4,1.6,0.2,2-0.5l0,0c0.4-0.7,0.2-1.6-0.5-2l-0.2-0.1c-0.7-0.4-1.6-0.2-2,0.5l0,0
					C60,134.7,60.3,135.6,61,136z"/>
			</g>
			<g>
				<path class="st1" d="M57.9,141.8l0.2,0.1c0.7,0.4,1.6,0.2,2-0.5l0,0c0.4-0.7,0.2-1.6-0.5-2l-0.2-0.1c-0.7-0.4-1.6-0.2-2,0.5l0,0
					C56.9,140.4,57.2,141.3,57.9,141.8z"/>
			</g>
			<g>
				<path class="st1" d="M57,147c0.4-0.7,0.2-1.6-0.5-2l-0.2-0.1c-0.7-0.4-1.6-0.2-2,0.5l0,0c-0.4,0.7-0.2,1.6,0.5,2l0.2,0.1
					C55.7,148,56.6,147.7,57,147L57,147z"/>
			</g>
			<g>
				<path class="st1" d="M89,136l-0.2,0.1c-0.7,0.4-1.6,0.2-2-0.5l0,0c-0.4-0.7-0.2-1.6,0.5-2l0.2-0.1c0.7-0.4,1.6-0.2,2,0.5l0,0
					C90,134.7,89.7,135.6,89,136z"/>
			</g>
			<g>
				<path class="st1" d="M92.1,141.8l-0.2,0.1c-0.7,0.4-1.6,0.2-2-0.5l0,0c-0.4-0.7-0.2-1.6,0.5-2l0.2-0.1c0.7-0.4,1.6-0.2,2,0.5
					l0,0C93.1,140.4,92.8,141.3,92.1,141.8z"/>
			</g>
			<g>
				<path class="st1" d="M93,147c-0.4-0.7-0.2-1.6,0.5-2l0.2-0.1c0.7-0.4,1.6-0.2,2,0.5l0,0c0.4,0.7,0.2,1.6-0.5,2l-0.2,0.1
					C94.3,148,93.4,147.7,93,147L93,147z"/>
			</g>
		</g>
	</g>
</g>
<g>
	<rect x="300" y="100" class="st0" width="150" height="100"/>
	<g>
		<g>
			<path class="st1" d="M361.1,108.5l-39-3.4c-0.5,0-1,0.1-1.3,0.3c-0.4,0.2-0.7,0.6-0.9,1.1l-6.8,18.5l-1.9-2.9
				c-0.7-1-2-1.3-2.9-0.7l-2.3,1.4c-1,0.6-1.2,1.9-0.6,2.9l4.6,7.1c0.1,0.1,0.1,0.2,0.2,0.3l-3.6,9.8c-0.4,1.1,0.2,2.3,1.3,2.8
				l1.7,0.6c1.1,0.4,2.4-0.1,2.8-1.2l12.3-33.7l36.1,3.2c1.2,0.1,2.2-0.8,2.3-1.9l0.1-1.8C363.2,109.7,362.3,108.6,361.1,108.5z"/>
			<path class="st1" d="M366.5,132.2l-27-10l-23,17.8c-0.1,0.3-0.4,0.7-0.3,1.1l4.3,27.5c0.2,1.2,2,2.1,3.4,1.9l15.6-2.4l-2.8-18.2
				c-0.1-0.4,0.5-0.6,0.9-0.7l11.7-1.8c0.4-0.1,0.9,0,0.9,0.4L353,166l16.1-2.5c1.5-0.2,2.4-1.6,2.2-2.8l-4.3-27.5
				C367,132.8,366.8,132.5,366.5,132.2z M331.7,152.1c0,0.2,0.5,0.1,0.1,0.2l-8.9,1.4c-0.3,0.1-0.5,0.1-0.5-0.1l-1.3-8.4
				c0-0.2,0.1-0.8,0.4-0.8l8.9-1.4c0.3-0.1,0,0.6,0,0.8L331.7,152.1z"/>
		</g>
		<g>
			<g>
				<g>
					<path class="st0" d="M370.4,197.3c-5.1,0-9.2-4.1-9.2-9.2V148c0-5.1,4.1-9.2,9.2-9.2h67.8c5.1,0,9.2,4.1,9.2,9.2v40.1
						c0,5.1-4.1,9.2-9.2,9.2H370.4z"/>
					<path class="st0" d="M438.1,141.1c3.8,0,6.9,3.1,6.9,6.9v40.1c0,3.8-3.1,6.9-6.9,6.9h-67.8c-3.8,0-6.9-3.1-6.9-6.9V148
						c0-3.8,3.1-6.9,6.9-6.9H438.1 M438.1,136.4h-67.8c-6.4,0-11.6,5.2-11.6,11.6v40.1c0,6.4,5.2,11.6,11.6,11.6h67.8
						c6.4,0,11.6-5.2,11.6-11.6V148C449.7,141.6,444.5,136.4,438.1,136.4L438.1,136.4z"/>
				</g>
			</g>
			<g>
				<path class="st2" d="M397.1,130h14.7v6.3h4.9v-8c0-1.8-1.5-3.3-3.3-3.3h-17.9c-1.8,0-3.3,1.5-3.3,3.3v8h4.9V130z"/>
				<path class="st2" d="M438.5,141.1H370c-3.6,0-6.5,2.9-6.5,6.5v13.2H445v-13.2C445,144.1,442.1,141.1,438.5,141.1z"/>
				<path class="st2" d="M363.5,188.4c0,3.6,2.9,6.5,6.5,6.5h42.3l-5.2-5.2c-1.1,0.4-2.2,0.6-3.4,0.6c-5.7,0-10.3-4.6-10.3-10.3
					c0-1.2,0.2-2.3,0.6-3.4l5.5,5.5c0.2,0.2,0.5,0.2,0.7,0.2l4.1-1.1c0.2-0.1,0.4-0.3,0.5-0.5l1.2-4.1c0.1-0.2,0-0.5-0.2-0.7
					l-5.5-5.5c1.1-0.4,2.2-0.6,3.4-0.6c5.7,0,10.3,4.6,10.3,10.3c0,1.2-0.2,2.3-0.6,3.4l11.5,11.5h13.5c3.6,0,6.5-2.9,6.5-6.5v-22.6
					h-81.5V188.4z"/>
			</g>
		</g>
	</g>
</g>
<g>
	<rect x="450" y="100" class="st0" width="150" height="100"/>
	<g>
		<g>
			<path class="st2" d="M582,114.8c-1.1-0.9-2.3-1.5-3.7-1.3c-1.2-3.5-4.7-5.3-7.7-3.8c-1.4-2.9-4.1-4.8-7.2-4.7
				c-2.9,0.2-5.3,2.2-6.4,4.9c-3.4-3.2-8.5-1.2-9.4,3.6c-3.4-1.5-6.9,1.4-6.7,5.5c0.3,4.4,4.6,6.8,7.8,4.3c1.9,2.6,6.1,3.2,8.8,1.3
				c1.2,2.1,3.7,3.6,6.7,3.8l1.1-4.3l-5.8,0.4c-0.2,0-0.4-0.2-0.3-0.4l3.9-11.8c0-0.1,0.2-0.2,0.3-0.2l6.2-0.4
				c0.2,0,0.4,0.2,0.3,0.4l-3.5,7.5l5.7-0.4c0.2,0,0.4,0.2,0.3,0.5l-3.9,7.9c1.2-0.6,2.2-1.5,2.9-2.6c2,0.7,4.3,0.4,5.9-0.8
				c3.3,1.5,6.8-1.1,6.8-5C583.8,116.9,583.2,115.7,582,114.8z"/>
			<path class="st1" d="M547,133.1c-0.3,0.9,0.1,1.9,1,2.2c0.9,0.3,1.9-0.1,2.2-1c0.3-0.9,0-5.1,0-5.1S547.3,132.2,547,133.1z
				 M550,134.2c-0.3,0.8-1.3,1.2-2.4,0.7c1.2,0.3,2.3-0.4,2.4-1.2C550.1,133.9,550.1,134.1,550,134.2z"/>
			<path class="st1" d="M558.1,133.1c-0.3,0.9,0.1,1.9,1,2.2c0.9,0.3,1.9-0.1,2.2-1c0.3-0.9,0-5.1,0-5.1S558.5,132.2,558.1,133.1z
				 M561.2,134.2c-0.3,0.8-1.3,1.2-2.4,0.7c1.2,0.3,2.3-0.4,2.4-1.2C561.3,133.9,561.2,134.1,561.2,134.2z"/>
			<path class="st1" d="M564.2,139.1c-0.3,0.9,0.1,1.9,1,2.2c0.9,0.3,1.9-0.1,2.2-1c0.3-0.9,0-5.1,0-5.1S564.5,138.2,564.2,139.1z
				 M567.2,140.2c-0.3,0.9-1.5,1.1-2.4,0.7c1.2,0.3,2.3-0.4,2.4-1.2C567.3,139.9,567.3,140.1,567.2,140.2z"/>
			<path class="st1" d="M556.8,144.7c-0.3,0.9,0.1,1.9,1,2.2c0.9,0.3,1.9-0.1,2.2-1c0.3-0.9,0-5.1,0-5.1S557.1,143.8,556.8,144.7z
				 M559.8,145.8c-0.3,0.9-1.5,1.2-2.4,0.7c1.2,0.3,2.3-0.4,2.4-1.2C559.9,145.5,559.9,145.6,559.8,145.8z"/>
			<path class="st1" d="M551.4,139.1c-0.3,0.9,0.1,1.9,1,2.2c0.9,0.3,1.9-0.1,2.2-1c0.3-0.9,0-5.1,0-5.1S551.7,138.2,551.4,139.1z
				 M554.5,140.2c-0.3,0.9-1.5,1.1-2.4,0.7c1.2,0.3,2.3-0.4,2.4-1.2C554.5,139.9,554.5,140.1,554.5,140.2z"/>
			<path class="st1" d="M571.5,132.8c-0.3,0.9,0.1,1.9,1,2.2c0.9,0.3,1.9-0.1,2.2-1c0.3-0.9,0-5.1,0-5.1S571.8,131.9,571.5,132.8z
				 M574.5,133.9c-0.3,0.7-1.3,1.2-2.4,0.7c1.2,0.3,2.3-0.4,2.4-1.2C574.6,133.6,574.6,133.8,574.5,133.9z"/>
			<path class="st1" d="M565.6,120.3c-0.2,0-0.4-0.2-0.3-0.4l3.6-7.5l-5.4,0.3l-3.7,11.2c0,0,5.8-0.4,5.8-0.4c0.2,0,0.4,0.2,0.3,0.4
				c-0.2,0.7-3.2,13.2-3.4,13.8c0.5-0.9,8.4-16.9,8.8-17.7L565.6,120.3z"/>
		</g>
		<g>
			<path class="st2" d="M488.5,140.1l39.2-9.2c0.5-0.1,1-0.1,1.4,0.1c0.4,0.2,0.8,0.5,1,0.9l9.8,17l1.5-3.1c0.5-1.1,1.8-1.6,2.9-1.1
				l2.6,1.1c1.1,0.5,1.6,1.7,1.1,2.8l-3.5,7.6c0,0.1-0.1,0.2-0.2,0.3l5.2,9c0.6,1,0.2,2.3-0.9,2.9l-1.6,0.9c-1.1,0.6-2.4,0.2-3-0.8
				L526,137.3l-36.2,8.6c-1.2,0.3-2.4-0.4-2.6-1.6l-0.4-1.7C486.5,141.5,487.3,140.3,488.5,140.1z"/>
			<path class="st2" d="M485.5,165.1v27.4c0,1.2,2.1,2.4,3.6,2.4h17.6c-0.4,0-1.2-0.6-1.2-1v-19.2c0-0.4,0.7,0.3,1.2,0.3h12.1
				c0.4,0,0.7-0.7,0.7-0.3V194c0,0.4-0.2,1-0.7,1h17.3c1.5,0,2.3-1.3,2.3-2.4v-27.4c0-0.4,0-0.7-0.2-1l-25.8-13.9l-26.2,13.8
				C486.1,164.4,485.5,164.7,485.5,165.1z M523.5,169.8c0-0.2,1.3,1.2,1.7,1.2h9.3c0.3,0,0-1.4,0-1.2v8.3c0,0.2,0.3,0.9,0,0.9h-9.3
				c-0.3,0-1.7-0.7-1.7-0.9V169.8z"/>
			<g>
				<path class="st1" d="M471,123.8c-1.5,5.3-1.1,12.4-0.6,16.3c1.2,8.2,5.4,11.9,9.4,14.8c6,4.3,14.5,7.1,17,11.3
					c0-3-3.1-8.3-6.9-12.5c-2-2.2-5.3-7-5.3-11.6c0-4.5,0.9-13.5,8.9-18.2H471z"/>
			</g>
			<g>
				<path class="st8" d="M471.9,148.2c-0.4,0.7-0.5,1.4-0.2,2.1c1,2.5,6.4,3.6,11.9,2.6c3.5-0.7,6.3-2,7.6-3.6c-1,1.8-4,3.4-8,4.2
					c-5.5,1-10.9-0.2-11.9-2.6C471,150,471.2,149.1,471.9,148.2z"/>
				<path class="st8" d="M471.3,150.9c-0.4-0.9-0.2-1.9,0.6-2.8l0.1,0.1c-0.4,0.7-0.5,1.4-0.2,2.1c0.7,1.8,3.8,2.9,7.9,2.9h0
					c1.3,0,2.6-0.1,4-0.4c3.4-0.6,6.2-2,7.5-3.6l0.1,0.1c-1.1,1.9-4.1,3.5-8,4.2c-1.3,0.2-2.7,0.4-4,0.4h0
					C475.2,154,472,152.8,471.3,150.9z M483.7,153c-1.3,0.2-2.7,0.4-4,0.4h0c-4.1,0-7.2-1.2-8-3c-0.2-0.5-0.2-1-0.1-1.5
					c-0.3,0.7-0.4,1.3-0.1,2c0.7,1.8,3.8,2.9,7.9,2.9h0c1.3,0,2.6-0.1,4-0.4c3.1-0.6,5.7-1.7,7.1-3.1
					C488.8,151.5,486.4,152.5,483.7,153z"/>
			</g>
			<g>
				<path class="st8" d="M478.5,155.1c-0.3,0.7-0.4,1.4-0.1,2c1.1,2.2,6,2.7,11,1.3c3.2-0.9,5.6-2.5,6.7-4c-0.8,1.7-3.5,3.5-7,4.6
					c-5,1.5-9.9,0.9-11-1.3C477.8,156.9,477.9,156,478.5,155.1z"/>
				<path class="st8" d="M478.1,157.7c-0.4-0.8-0.3-1.7,0.4-2.6l0.1,0.1c-0.3,0.7-0.3,1.3-0.1,1.9c0.6,1.3,2.7,2,5.6,2
					c1.7,0,3.5-0.3,5.3-0.8c3.1-0.9,5.5-2.4,6.7-4l0.1,0.1c-0.9,1.8-3.6,3.6-7.1,4.6c-1.8,0.5-3.7,0.8-5.4,0.8h0
					C480.9,159.8,478.8,159,478.1,157.7z M489.5,158.5c-1.8,0.5-3.7,0.8-5.4,0.8c-2.9,0-5-0.8-5.7-2.1c-0.2-0.4-0.3-0.8-0.2-1.3
					c-0.2,0.6-0.2,1.2,0,1.7c0.6,1.3,2.7,2,5.6,2h0c1.7,0,3.5-0.3,5.3-0.8c2.7-0.8,4.9-2,6.2-3.4C494,156.7,491.9,157.8,489.5,158.5
					z"/>
			</g>
			<g>
				<path class="st8" d="M488.7,136.6c1,0.4,1.8,0.9,2.2,1.5c1.5,1.9-2.2,3.8-8.1,4.1c-3.8,0.2-7.6-0.3-10.3-1.1
					c2.6,1.1,6.9,1.7,11.2,1.5c6-0.3,9.6-2.2,8.1-4.1C491.3,137.7,490.2,137.1,488.7,136.6z"/>
				<path class="st8" d="M472.5,141.2l0.1-0.2c2.3,0.7,5.3,1.2,8.4,1.2c0.6,0,1.2,0,1.8,0c4.3-0.2,7.6-1.3,8.3-2.7
					c0.2-0.4,0.1-0.9-0.2-1.3c-0.4-0.5-1.1-1-2.2-1.5l0.1-0.2c1.6,0.5,2.7,1.2,3.2,1.8c0.4,0.5,0.4,1,0.2,1.5
					c-0.7,1.4-4,2.5-8.4,2.8c-0.6,0-1.2,0-1.8,0C478.3,142.7,474.8,142.1,472.5,141.2z M491,138.1c0.4,0.5,0.4,1,0.2,1.5
					c-0.7,1.4-4,2.5-8.4,2.8c-0.6,0-1.2,0-1.8,0c-1.8,0-3.6-0.1-5.2-0.4c1.8,0.4,4,0.6,6.1,0.6c0.6,0,1.2,0,1.8,0
					c4.3-0.2,7.6-1.3,8.3-2.7c0.2-0.4,0.1-0.9-0.2-1.3c-0.3-0.4-0.8-0.8-1.6-1.2C490.5,137.5,490.8,137.8,491,138.1z"/>
			</g>
			<g>
				<path class="st8" d="M470,129.9c-0.8,0.7-1.3,1.4-1.3,2.2c0,2.8,5.5,5,12.4,5c4.4,0,8.2-0.9,10.4-2.3c-2,1.7-6.2,2.8-11.1,2.8
					c-6.8,0-12.4-2.3-12.4-5C468.1,131.7,468.8,130.7,470,129.9z"/>
				<path class="st8" d="M471.6,136.3c-2.4-1-3.7-2.3-3.7-3.6c0-1,0.7-2,2-2.8l0.1,0.1c-0.8,0.7-1.2,1.4-1.2,2.2c0,2.7,5.5,5,12.3,5
					c4.2,0,8.1-0.9,10.3-2.3l0.1,0.1c-2.1,1.8-6.4,2.9-11.2,2.9C477.1,137.8,474,137.3,471.6,136.3z M481.1,137.3
					c-3.3,0-6.4-0.5-8.8-1.5c-2.4-1-3.7-2.3-3.7-3.6c0-0.5,0.2-1,0.6-1.5c-0.7,0.6-1.1,1.3-1.1,2.1c0,2.7,5.5,5,12.3,5
					c3.8,0,7.3-0.7,9.6-1.9C487.7,136.7,484.5,137.3,481.1,137.3z"/>
			</g>
			<g>
				<path class="st8" d="M469,125.4c-0.9,0.6-1.4,1.3-1.4,2.1c0,2.6,6.1,4.7,13.7,4.7c4.8,0,9.1-0.9,11.5-2.2
					c-2.2,1.6-6.9,2.6-12.3,2.6c-7.6,0-13.7-2.1-13.7-4.7C466.8,127,467.6,126.1,469,125.4z"/>
				<path class="st8" d="M470.8,131.3c-2.6-0.9-4.1-2.1-4.1-3.4c0-0.9,0.8-1.8,2.2-2.6l0.1,0.1c-0.9,0.6-1.3,1.3-1.3,2
					c0,2.6,6.1,4.6,13.6,4.6c4.7,0,8.9-0.8,11.5-2.1l0.1,0.1c-2.3,1.6-7.1,2.7-12.3,2.7C476.8,132.7,473.4,132.2,470.8,131.3z
					 M481.3,132.2c-3.7,0-7.1-0.5-9.7-1.4c-2.6-0.9-4.1-2.1-4.1-3.4c0-0.5,0.2-1,0.6-1.4c-0.8,0.6-1.3,1.3-1.3,1.9
					c0,2.6,6.1,4.6,13.6,4.6c4.1,0,8-0.7,10.6-1.7C488.5,131.7,485,132.2,481.3,132.2z"/>
			</g>
			<g>
				<path class="st8" d="M467.9,137.1c-0.7,0.9-1.1,1.9-1.1,2.9c0,3.7,4.7,6.6,10.4,6.6c3.7,0,6.9-1.2,8.8-3
					c-1.7,2.2-5.2,3.7-9.4,3.7c-5.8,0-10.4-3-10.4-6.6C466.3,139.4,466.9,138.2,467.9,137.1z"/>
				<path class="st8" d="M466.2,140.7c0-1.3,0.6-2.6,1.7-3.7l0.1,0.1c-0.7,0.9-1,1.9-1,2.9c0,3.6,4.6,6.6,10.3,6.6
					c3.5,0,6.8-1.1,8.7-3l0.1,0.1c-1.8,2.3-5.4,3.8-9.4,3.8C470.9,147.4,466.2,144.4,466.2,140.7z M477.3,146.8
					c-5.8,0-10.5-3-10.5-6.7c0-0.7,0.2-1.4,0.5-2c-0.6,0.8-0.9,1.8-0.9,2.7c0,3.6,4.6,6.6,10.3,6.6c3.4,0,6.5-1,8.4-2.7
					C483.1,146,480.3,146.8,477.3,146.8z"/>
			</g>
			<path class="st8" d="M471,123.8c0,0.9,5.3,1.6,11.4,1.6s11.1-0.7,11.1-1.6c0-0.9-4.9-1.6-11.1-1.6S471,122.9,471,123.8z"/>
		</g>
	</g>
</g>
<g>
	<rect x="150" y="100" class="st0" width="150" height="100"/>
	<g>
		<path d="M284.5,178.8c0,0-0.1-0.1-0.2-0.1c-0.3-0.4-0.6-0.8-1.1-1.1c-1.2-0.8-2.7,0-4,0.4c-0.7,0.2-1.5,0.3-1.9-0.2
			c-0.2-0.2-0.3-0.4-0.4-0.5c-0.5-0.6-1.3-0.9-2-1c-1.3-0.3-2.7-0.6-3.9-0.1c-0.8,0.4-1.3,1.1-1.9,1.7c-1.2,1.4-4.6,4-6.2,4.8
			c-5.6,2.8-5.2,10.3-5.3,10.3h27V178.8z"/>
		<circle class="st2" cx="174.8" cy="181.4" r="5.4"/>
		<ellipse transform="matrix(0.6469 -0.7626 0.7626 0.6469 -5.2334 218.6345)" class="st2" cx="233.5" cy="115" rx="8.2" ry="8.2"/>
		<path class="st2" d="M227.5,150.9c0-0.1,0-0.2,0-0.4c0-0.5,0-0.9,0-1.4c-0.3-0.3-0.6-0.6-0.9-0.9c-0.7-0.8-1.4-1.7-1.9-2.6
			c-0.1-0.1-0.1-0.2-0.2-0.3c-1.9-3.2-2.9-6.9-2.9-10.9c0-3.4,0.7-6,0.9-6.7l0,0l0,0c0.5-1.5,1.9-2.5,3.5-2.5c0.4,0,0.7,0.1,1.1,0.2
			c1.9,0.6,3,2.7,2.4,4.6c0,0.1,0,0.1-0.1,0.2c-0.1,0.2-0.1,0.5-0.2,0.9c-0.1,0.8-0.3,2-0.3,3.4c0,0.9,0.1,2.1,0.4,3.4
			c0.6-2.1,1.1-4,1.6-5.7c1.3-3.5,0.3-8-2.9-8.9c-3.1-1-7.9,0.4-10.1,5.6c-2.8,6.4-3.8,10.9-3.7,17.6c-1.5,0.5-2.8,1.3-3.9,2.2
			c-2.4,2.1-3.6,5-3.6,8.3c0,4.4-1.3,9.3-3.4,13.4c-2.1,4.1-5,7.6-8,9.3c-0.9,0.5-1.7,0.9-2.4,1.1c0.5-3.2,1.1-13.6-11.3-13.6
			c0,0-1.6,1.6-3.4,1.6c-1.8,0-12.6,0-12.6,0v12.9h2.8c0,0,0,0,0,0c0-3.6,2.9-6.5,6.5-6.5c3.6,0,6.5,2.9,6.5,6.5c0,0,0,0,0,0h1.2
			v2.2h9v-0.5c1.3-0.2,2.8-0.8,4.7-1.8c3.5-2,6.6-5.8,8.9-10.2c2.3-4.4,3.7-9.5,3.7-14.4c0-2.7,1-5,2.9-6.6c0.7-0.6,1.5-1.1,2.5-1.6
			c0,0,0,0.1,0,0.1c0.2,1.5,0.6,2.7,1.1,3.6c-0.2,1.9-0.5,4.4-1.1,7.2c-1.3,5.9-3.7,13.1-8.1,18.9c-1.5,2-1.1,4.9,0.9,6.4
			c2,1.5,4.9,1.1,6.4-0.9c5.2-6.9,7.9-14.7,9.4-21.2c0.6,2.2,1,4.8,1,7.6c0,3.1-0.5,6.5-1.8,10.3c-0.8,2.4,0.5,5,2.9,5.8
			c0.5,0.2,1,0.2,1.5,0.2c1.9,0,3.7-1.2,4.3-3.1c1.6-4.7,2.2-9.2,2.2-13.2c0-7.7-2.3-13.9-4.7-18.1
			C228,151.7,227.7,151.3,227.5,150.9z"/>
		<path class="st1" d="M259.2,170.3l-11.4-10.7c0.1-0.5-0.1-1-0.4-1.4l-5.9-6.1c0,0.1-0.1,0.3-0.1,0.4c-0.1,0.2-0.2,0.4-0.3,0.6
			c-0.4,0.6-0.9,1.2-1.6,1.5c-0.1,0.1-0.3,0.1-0.4,0.2l5.7,6c0.4,0.4,1,0.6,1.6,0.5l11.4,10.7c0.2,0.2,0.5,0.3,0.8,0.3h0
			C259.5,172.2,259.9,171,259.2,170.3z"/>
		<path class="st2" d="M240.5,152.6c0.1-0.1,0.1-0.2,0.2-0.3c0.1-0.3,0.1-0.6,0.2-0.8c0.1-1.3-0.7-2.4-1.9-2.9
			c-4.8-1.7-7.3-4.1-8.8-6.6c-0.5-0.9-0.9-1.8-1.2-2.7c-0.5-1.7-0.7-3.3-0.7-4.8c0-1.4,0.2-2.7,0.3-3.5c0.1-0.4,0.2-0.8,0.2-1
			c0-0.1,0.1-0.2,0.1-0.2c0,0,0,0,0,0l0,0c0.5-1.5-0.4-3.2-1.9-3.6c-1.5-0.5-3.2,0.4-3.7,1.9c-0.1,0.2-0.9,2.8-0.9,6.5
			c0,3,0.6,6.9,2.8,10.5c0.2,0.3,0.3,0.6,0.5,0.8c0.5,0.8,1.1,1.6,1.8,2.3c0.1,0.1,0.3,0.3,0.4,0.4c2.2,2.2,5.2,4.2,9.1,5.5
			c0.3,0.1,0.6,0.2,1,0.2c0.2,0,0.3,0,0.5,0c0.2,0,0.3-0.1,0.4-0.1C239.6,153.8,240.2,153.3,240.5,152.6z"/>
		<g>
			<g>
				<line class="st0" x1="259.5" y1="172.1" x2="265.3" y2="177.9"/>
				<path class="st9" d="M259.5,172.1l6.3,5.3c0.3,0.3,0.3,0.7,0.1,1c-0.3,0.3-0.7,0.3-1,0.1c0,0-0.1-0.1-0.1-0.1L259.5,172.1z"/>
			</g>
			<g>
				<line class="st0" x1="259.5" y1="172.1" x2="266.1" y2="175.1"/>
				<path class="st9" d="M259.5,172.1l6.9,2.5c0.3,0.1,0.5,0.5,0.4,0.8c-0.1,0.3-0.5,0.5-0.8,0.4c0,0-0.1,0-0.1,0L259.5,172.1z"/>
			</g>
			<g>
				<line class="st0" x1="259.5" y1="172.1" x2="265" y2="172.1"/>
				<path class="st9" d="M259.5,172.1l5.5-0.5c0.3,0,0.6,0.2,0.6,0.5s-0.2,0.6-0.5,0.6c0,0-0.1,0-0.1,0L259.5,172.1z"/>
			</g>
			<g>
				<line class="st0" x1="259.5" y1="172.1" x2="262.5" y2="178.6"/>
				<path class="st9" d="M259.5,172.1l3.6,6.3c0.2,0.3,0.1,0.7-0.2,0.8s-0.7,0.1-0.8-0.2c0,0,0-0.1,0-0.1L259.5,172.1z"/>
			</g>
			<g>
				<line class="st0" x1="259.5" y1="172.1" x2="259.5" y2="177.6"/>
				<path class="st9" d="M259.5,172.1l0.5,5.5c0,0.3-0.2,0.6-0.5,0.6c-0.3,0-0.6-0.2-0.6-0.5c0,0,0-0.1,0-0.1L259.5,172.1z"/>
			</g>
		</g>
	</g>
</g>
<g>
	<g>
		<line class="st10" x1="6" y1="-9.8" x2="8.5" y2="-9.8"/>
		<line class="st11" x1="13.5" y1="-9.8" x2="139" y2="-9.8"/>
		<line class="st10" x1="141.5" y1="-9.8" x2="144" y2="-9.8"/>
		<g>
			<path d="M0-9.8C2.8-8.7,6.4-6.9,8.5-5L6.8-9.8l1.7-4.8C6.4-12.6,2.8-10.8,0-9.8z"/>
		</g>
		<g>
			<path d="M150-9.8c-2.8,1.1-6.4,2.9-8.5,4.8l1.7-4.8l-1.7-4.8C143.6-12.6,147.2-10.8,150-9.8z"/>
		</g>
	</g>
</g>
<g>
	<path d="M64.7-17.4v0.9h-4.1v-0.9h1.7v-5.1c-0.4,0.2-1,0.4-1.4,0.5l-0.1-0.8c0.6-0.2,1.4-0.6,1.8-0.8h0.7v6.2H64.7z"/>
	<path d="M66.5-18c0.6,0.4,1.2,0.7,2,0.7c1.3,0,1.6-0.8,1.6-1.4c0-0.6-0.4-1.5-2.1-1.5c-0.6,0-1.1,0.1-1.5,0.2v-0.3l0.5-3.3h3.7
		l-0.1,0.9h-2.9l-0.3,1.7c0.2,0,0.4-0.1,0.9-0.1c2,0,2.7,1,2.7,2.2c0,1.4-1,2.4-2.7,2.4c-0.9,0-1.7-0.3-2.3-0.7L66.5-18z"/>
	<path d="M74.8-23.6c1.9,0,2.6,1.8,2.6,3.6c0,2-0.8,3.6-2.6,3.6c-1.7,0-2.6-1.5-2.6-3.6C72.2-22.2,73.2-23.6,74.8-23.6z M74.9-17.3
		c1.1,0,1.5-1.2,1.5-2.7c0-1.7-0.6-2.7-1.6-2.7c-0.9,0-1.6,1-1.6,2.7C73.2-18.4,73.8-17.3,74.9-17.3z"/>
	<path d="M78.8-20.4c0-0.7,0-1.3,0-1.9h0.9l0,1h0c0.4-0.7,1.1-1.1,2.1-1.1c1.4,0,2.5,1.2,2.5,2.9c0,2.1-1.3,3.1-2.6,3.1
		c-0.8,0-1.5-0.3-1.8-0.9h0v3.2h-1V-20.4z M79.8-18.9c0,0.2,0,0.3,0,0.4c0.2,0.7,0.8,1.2,1.6,1.2c1.1,0,1.8-0.9,1.8-2.2
		c0-1.2-0.6-2.1-1.7-2.1c-0.7,0-1.4,0.5-1.6,1.3c0,0.1-0.1,0.3-0.1,0.4V-18.9z"/>
	<path d="M86.1-22.3l0.8,1.2c0.2,0.3,0.4,0.6,0.6,0.9h0c0.2-0.3,0.4-0.6,0.6-0.9l0.8-1.2h1.2l-2,2.8l2,3h-1.2l-0.9-1.3
		c-0.2-0.3-0.4-0.7-0.6-1h0c-0.2,0.4-0.4,0.7-0.6,1L86-16.5h-1.2l2.1-3l-2-2.8H86.1z"/>
</g>
<g>
	<g>
		<line class="st12" x1="-20" y1="4.9" x2="-20" y2="7"/>
		<line class="st13" x1="-20" y1="11.1" x2="-20" y2="91"/>
		<line class="st12" x1="-20" y1="93" x2="-20" y2="95.1"/>
		<g>
			<path d="M-20,0c-0.9,2.3-2.3,5.2-3.9,7l3.9-1.4l3.9,1.4C-17.7,5.2-19.1,2.3-20,0z"/>
		</g>
		<g>
			<path d="M-20,100c-0.9-2.3-2.3-5.2-3.9-7l3.9,1.4l3.9-1.4C-17.7,94.8-19.1,97.7-20,100z"/>
		</g>
	</g>
</g>
<g>
	<path d="M-27.5,60.3h0.9v4.1h-0.9v-1.7h-5.1c0.2,0.4,0.4,1,0.5,1.4l-0.8,0.1c-0.2-0.6-0.6-1.4-0.8-1.8v-0.7h6.2V60.3z"/>
	<path d="M-33.8,56.3c0-1.9,1.8-2.6,3.6-2.6c2,0,3.6,0.8,3.6,2.6c0,1.7-1.5,2.6-3.6,2.6C-32.4,58.9-33.8,57.9-33.8,56.3z
		 M-27.4,56.2c0-1.1-1.2-1.5-2.7-1.5c-1.7,0-2.7,0.6-2.7,1.6c0,0.9,1,1.6,2.7,1.6C-28.6,57.9-27.4,57.3-27.4,56.2z"/>
	<path d="M-33.8,50.2c0-1.9,1.8-2.6,3.6-2.6c2,0,3.6,0.8,3.6,2.6c0,1.7-1.5,2.6-3.6,2.6C-32.4,52.8-33.8,51.8-33.8,50.2z
		 M-27.4,50.1c0-1.1-1.2-1.5-2.7-1.5c-1.7,0-2.7,0.6-2.7,1.6c0,0.9,1,1.6,2.7,1.6C-28.6,51.8-27.4,51.2-27.4,50.1z"/>
	<path d="M-30.6,46.2c-0.7,0-1.3,0-1.9,0v-0.9l1,0v0c-0.7-0.4-1.1-1.1-1.1-2.1c0-1.4,1.2-2.5,2.9-2.5c2.1,0,3.1,1.3,3.1,2.6
		c0,0.8-0.3,1.5-0.9,1.8v0h3.2v1H-30.6z M-29,45.2c0.2,0,0.3,0,0.4,0c0.7-0.2,1.2-0.8,1.2-1.6c0-1.1-0.9-1.8-2.2-1.8
		c-1.2,0-2.1,0.6-2.1,1.7c0,0.7,0.5,1.4,1.3,1.6c0.1,0,0.3,0.1,0.4,0.1H-29z"/>
	<path d="M-32.4,38.9l1.2-0.8c0.3-0.2,0.6-0.4,0.9-0.6v0c-0.3-0.2-0.6-0.4-0.9-0.6l-1.2-0.8v-1.2l2.8,2l3-2v1.2l-1.3,0.9
		c-0.3,0.2-0.7,0.4-1,0.6v0c0.4,0.2,0.7,0.4,1,0.6l1.3,0.8v1.2l-3-2.1l-2.8,2V38.9z"/>
</g>
</svg>
