<svg style="position: absolute; width: 0; height: 0;" width="0" height="0" version="1.1" xmlns="http://www.w3.org/2000/svg" xmlns:xlink="http://www.w3.org/1999/xlink">
<defs>
<symbol id="menu" viewBox="0 0 32 32">
<path class="path1 fill-color1" d="M0 0h32v6.4h-32v-6.4z"></path>
<path class="path2 fill-color1" d="M0 12.8h32v6.4h-32v-6.4z"></path>
<path class="path3 fill-color1" d="M0 25.6h32v6.4h-32v-6.4z"></path>
</symbol>
<symbol id="phone" viewBox="0 0 32 32">
<path class="path1 fill-color2" d="M16 0c-8.832 0-16 7.168-16 16s7.168 16 16 16c8.832 0 16-7.168 16-16s-7.168-16-16-16zM25.856 22.208c-0.704 2.496-2.688 4.096-5.568 3.84-0.96-0.064-5.248-0.96-9.216-4.928-4.032-3.968-4.864-8.192-4.928-9.152-0.32-2.88 0.96-5.12 3.328-5.952 0.704-0.256 1.472 0.128 1.792 0.768l1.28 2.752c0.256 0.576 0.128 1.216-0.32 1.664l-1.984 1.984c0 0 0.064 1.536 3.2 4.736 3.136 3.136 4.736 3.2 4.736 3.2l1.92-1.92c0.448-0.448 1.152-0.576 1.664-0.256l3.2 1.6c0.768 0.256 1.088 1.024 0.896 1.664z"></path>
</symbol>
</defs>
</svg>
